<svg width="156" height="32" viewBox="0 0 156 32" fill="none" xmlns="http://www.w3.org/2000/svg">
<path d="M1.124 23.748C0.62 23.352 0.566 22.902 0.962 22.398L6.614 15.234L1.43 8.556C1.034 8.076 1.082 7.632 1.574 7.224C2.078 6.852 2.522 6.906 2.906 7.386L7.964 13.884L13.22 7.386C13.616 6.87 14.06 6.822 14.552 7.242C15.056 7.638 15.11 8.076 14.714 8.556L9.134 15.414L14.606 22.416C15.002 22.932 14.954 23.37 14.462 23.73C13.958 24.138 13.508 24.09 13.112 23.586L7.82 16.782L2.438 23.568C2.042 24.084 1.604 24.144 1.124 23.748ZM25.4282 23.964C23.2802 23.964 21.6842 23.49 20.6402 22.542C19.6082 21.582 19.0562 20.076 18.9842 18.024C18.9722 17.736 19.0502 17.508 19.2182 17.34C19.3982 17.16 19.6322 17.07 19.9202 17.07C20.2082 17.07 20.4362 17.154 20.6042 17.322C20.7722 17.49 20.8682 17.718 20.8922 18.006C20.9402 19.518 21.3002 20.574 21.9722 21.174C22.6442 21.774 23.7962 22.074 25.4282 22.074H30.6122C32.3162 22.074 33.4982 21.744 34.1582 21.084C34.8302 20.412 35.1662 19.236 35.1662 17.556C35.1662 15.852 34.8302 14.67 34.1582 14.01C33.4982 13.338 32.3162 13.002 30.6122 13.002H25.6802C23.5682 13.002 22.0202 12.51 21.0362 11.526C20.0522 10.542 19.5602 9 19.5602 6.9C19.5602 4.8 20.0462 3.258 21.0182 2.274C22.0022 1.29 23.5442 0.797999 25.6442 0.797999H30.6842C32.7002 0.797999 34.1942 1.248 35.1662 2.148C36.1502 3.048 36.6782 4.464 36.7502 6.396C36.7742 6.684 36.6962 6.918 36.5162 7.098C36.3482 7.266 36.1142 7.35 35.8142 7.35C35.5382 7.35 35.3162 7.266 35.1482 7.098C34.9802 6.93 34.8842 6.702 34.8602 6.414C34.8122 5.034 34.4762 4.068 33.8522 3.516C33.2282 2.964 32.1722 2.688 30.6842 2.688H25.6442C24.0722 2.688 22.9802 3 22.3682 3.624C21.7562 4.236 21.4502 5.328 21.4502 6.9C21.4502 8.472 21.7562 9.57 22.3682 10.194C22.9922 10.806 24.0962 11.112 25.6802 11.112H30.6122C32.8442 11.112 34.4762 11.634 35.5082 12.678C36.5402 13.71 37.0562 15.336 37.0562 17.556C37.0562 19.776 36.5402 21.402 35.5082 22.434C34.4762 23.454 32.8442 23.964 30.6122 23.964H25.4282ZM49.5342 24C47.3262 24 45.7122 23.49 44.6922 22.47C43.6722 21.45 43.1622 19.842 43.1622 17.646V8.88H41.0202C40.3842 8.88 40.0662 8.562 40.0662 7.926C40.0662 7.302 40.3842 6.99 41.0202 6.99H43.1622V3.12C43.1622 2.484 43.4742 2.166 44.0982 2.166C44.7342 2.166 45.0522 2.484 45.0522 3.12V6.99H49.5702C50.1942 6.99 50.5062 7.302 50.5062 7.926C50.5062 8.562 50.1942 8.88 49.5702 8.88H45.0522V17.646C45.0522 19.326 45.3762 20.49 46.0242 21.138C46.6842 21.786 47.8542 22.11 49.5342 22.11C49.8822 22.11 50.1282 22.188 50.2722 22.344C50.4282 22.5 50.5062 22.734 50.5062 23.046C50.5062 23.682 50.1822 24 49.5342 24ZM55.7225 24C55.0865 24 54.7685 23.682 54.7685 23.046V7.926C54.7685 7.302 55.0865 6.99 55.7225 6.99C56.3465 6.99 56.6585 7.302 56.6585 7.926V10.698C57.2825 9.498 58.1825 8.58 59.3585 7.944C60.5465 7.308 61.9505 6.99 63.5705 6.99C64.2065 6.99 64.5245 7.302 64.5245 7.926C64.5245 8.562 64.2065 8.88 63.5705 8.88C61.4345 8.88 59.7785 9.366 58.6025 10.338C57.4265 11.298 56.7785 12.672 56.6585 14.46V23.046C56.6585 23.682 56.3465 24 55.7225 24ZM71.587 24C69.715 24 68.341 23.568 67.465 22.704C66.601 21.828 66.169 20.454 66.169 18.582C66.169 16.71 66.607 15.336 67.483 14.46C68.359 13.584 69.727 13.146 71.587 13.146H79.777C79.753 11.562 79.393 10.458 78.697 9.834C78.013 9.198 76.843 8.88 75.187 8.88H73.099C71.575 8.88 70.459 9.042 69.751 9.366C69.043 9.69 68.605 10.242 68.437 11.022C68.353 11.322 68.239 11.544 68.095 11.688C67.963 11.82 67.747 11.886 67.447 11.886C67.135 11.886 66.889 11.802 66.709 11.634C66.541 11.454 66.481 11.214 66.529 10.914C66.685 9.546 67.303 8.55 68.383 7.926C69.475 7.302 71.047 6.99 73.099 6.99H75.187C77.431 6.99 79.069 7.512 80.101 8.556C81.145 9.588 81.667 11.226 81.667 13.47V23.046C81.667 23.682 81.355 24 80.731 24C80.095 24 79.777 23.682 79.777 23.046V21.264C78.625 23.088 76.567 24 73.603 24H71.587ZM71.587 22.11H73.603C74.767 22.11 75.787 21.984 76.663 21.732C77.551 21.468 78.265 21.048 78.805 20.472C79.345 19.896 79.669 19.128 79.777 18.168V15.036H71.587C70.255 15.036 69.331 15.294 68.815 15.81C68.311 16.314 68.059 17.238 68.059 18.582C68.059 19.914 68.311 20.838 68.815 21.354C69.331 21.858 70.255 22.11 71.587 22.11ZM94.3078 24C92.0998 24 90.4858 23.49 89.4658 22.47C88.4458 21.45 87.9358 19.842 87.9358 17.646V8.88H85.7938C85.1578 8.88 84.8398 8.562 84.8398 7.926C84.8398 7.302 85.1578 6.99 85.7938 6.99H87.9358V3.12C87.9358 2.484 88.2478 2.166 88.8718 2.166C89.5078 2.166 89.8258 2.484 89.8258 3.12V6.99H94.3438C94.9678 6.99 95.2798 7.302 95.2798 7.926C95.2798 8.562 94.9678 8.88 94.3438 8.88H89.8258V17.646C89.8258 19.326 90.1498 20.49 90.7978 21.138C91.4578 21.786 92.6278 22.11 94.3078 22.11C94.6558 22.11 94.9018 22.188 95.0458 22.344C95.2018 22.5 95.2798 22.734 95.2798 23.046C95.2798 23.682 94.9558 24 94.3078 24ZM99.5047 16.224V17.538C99.5047 19.23 99.8407 20.418 100.513 21.102C101.197 21.774 102.397 22.11 104.113 22.11H107.065C108.577 22.11 109.675 21.918 110.359 21.534C111.055 21.138 111.469 20.46 111.601 19.5C111.649 19.2 111.745 18.972 111.889 18.816C112.045 18.66 112.279 18.582 112.591 18.582C112.903 18.582 113.137 18.672 113.293 18.852C113.461 19.02 113.527 19.26 113.491 19.572C113.335 21.084 112.729 22.2 111.673 22.92C110.617 23.64 109.081 24 107.065 24H104.113C101.869 24 100.225 23.484 99.1807 22.452C98.1367 21.408 97.6147 19.77 97.6147 17.538V13.47C97.6147 11.202 98.1367 9.552 99.1807 8.52C100.225 7.476 101.869 6.966 104.113 6.99H107.065C109.309 6.99 110.947 7.512 111.979 8.556C113.023 9.588 113.545 11.226 113.545 13.47V15.27C113.545 15.906 113.233 16.224 112.609 16.224H99.5047ZM104.113 8.88C102.397 8.856 101.197 9.186 100.513 9.87C99.8407 10.542 99.5047 11.742 99.5047 13.47V14.334H111.655V13.47C111.655 11.754 111.319 10.56 110.647 9.888C109.975 9.216 108.781 8.88 107.065 8.88H104.113ZM123.212 31.2C121.796 31.2 120.716 30.906 119.972 30.318C119.228 29.742 118.79 28.83 118.658 27.582C118.622 27.27 118.688 27.024 118.856 26.844C119.024 26.664 119.258 26.574 119.558 26.574C119.858 26.574 120.086 26.652 120.242 26.808C120.398 26.964 120.5 27.198 120.548 27.51C120.632 28.206 120.878 28.68 121.286 28.932C121.694 29.184 122.336 29.31 123.212 29.31H129.908C130.964 29.31 131.678 29.118 132.05 28.734C132.434 28.35 132.626 27.63 132.626 26.574V21.426C132.074 22.266 131.294 22.908 130.286 23.352C129.278 23.784 128 24 126.452 24H125.084C122.84 24 121.196 23.484 120.152 22.452C119.108 21.408 118.586 19.77 118.586 17.538V13.47C118.586 11.202 119.102 9.558 120.134 8.538C121.178 7.506 122.828 6.99 125.084 6.99H128.036C129.212 6.99 130.166 7.146 130.898 7.458C131.63 7.77 132.206 8.256 132.626 8.916V7.926C132.626 7.302 132.944 6.99 133.58 6.99C134.204 6.99 134.516 7.302 134.516 7.926V26.574C134.516 28.158 134.144 29.322 133.4 30.066C132.656 30.822 131.492 31.2 129.908 31.2H123.212ZM125.084 22.11H126.452C128.324 22.11 129.818 21.816 130.934 21.228C132.062 20.64 132.626 19.746 132.626 18.546V12.534C132.626 11.178 132.248 10.23 131.492 9.69C130.736 9.15 129.584 8.88 128.036 8.88H125.084C123.368 8.88 122.168 9.216 121.484 9.888C120.812 10.548 120.476 11.742 120.476 13.47V17.538C120.476 19.23 120.812 20.418 121.484 21.102C122.168 21.774 123.368 22.11 125.084 22.11ZM144.503 31.2C142.931 31.2 141.767 30.822 141.011 30.066C140.267 29.31 139.895 28.134 139.895 26.538C139.895 25.914 140.207 25.602 140.831 25.602C141.467 25.602 141.785 25.914 141.785 26.538C141.785 27.618 141.977 28.35 142.361 28.734C142.745 29.118 143.459 29.31 144.503 29.31H150.731C151.787 29.31 152.507 29.118 152.891 28.734C153.275 28.35 153.467 27.618 153.467 26.538V21.588C152.783 22.488 151.925 23.118 150.893 23.478C149.861 23.838 148.655 24.018 147.275 24.018H146.267C144.059 24.018 142.445 23.508 141.425 22.488C140.405 21.468 139.895 19.866 139.895 17.682V7.908C139.895 7.272 140.207 6.954 140.831 6.954C141.467 6.954 141.785 7.272 141.785 7.908V17.682C141.785 19.35 142.109 20.508 142.757 21.156C143.417 21.804 144.587 22.128 146.267 22.128H147.275C149.375 22.128 150.929 21.762 151.937 21.03C152.957 20.286 153.467 19.17 153.467 17.682V7.908C153.467 7.272 153.779 6.954 154.403 6.954C155.039 6.954 155.357 7.272 155.357 7.908V26.538C155.357 28.134 154.979 29.31 154.223 30.066C153.479 30.822 152.315 31.2 150.731 31.2H144.503Z" fill="white"/>
</svg>
