<svg width="207" height="60" viewBox="0 0 207 60" fill="none" xmlns="http://www.w3.org/2000/svg">
<path d="M190.873 5.20159L200.503 16.061C204.004 20.0093 204.208 25.8878 200.989 30.0695L182.295 54.3529C180.213 57.0579 176.993 58.6429 173.579 58.6429H26.5587C23.6474 58.6429 20.8549 57.4888 18.793 55.4335L7.66816 44.3444C3.7594 40.4482 3.34285 34.2587 6.69427 29.8739L25.0791 5.82016C27.1602 3.09731 30.3915 1.5 33.8186 1.5H182.643C185.789 1.5 188.785 2.84744 190.873 5.20159Z" fill="#0A0614" stroke="url(#paint0_linear_111_6)" stroke-width="2"/>
<path d="M184.832 8.76013L193.052 17.3982C196.163 20.6674 196.372 25.735 193.54 29.2491L176.875 49.9324C175.167 52.0528 172.59 53.2857 169.867 53.2857H101.151H29.5191C27.2004 53.2857 24.9711 52.3908 23.296 50.7875L13.9809 41.8718C10.597 38.633 10.2631 33.3401 13.2132 29.7017L29.7584 9.29606C31.4673 7.18844 34.0358 5.96429 36.7492 5.96429H178.312C180.777 5.96429 183.133 6.97485 184.832 8.76013Z" stroke="#737373" stroke-opacity="0.5" stroke-width="2"/>
<defs>
<linearGradient id="paint0_linear_111_6" x1="9.78129" y1="25.3698" x2="198.934" y2="25.9227" gradientUnits="userSpaceOnUse">
<stop offset="0.05" stop-color="#7BAAF0"/>
<stop offset="0.49" stop-color="#0A0E31" stop-opacity="0.27"/>
<stop offset="0.78" stop-color="#A5C0E8"/>
<stop offset="1" stop-color="#72AAFF"/>
</linearGradient>
</defs>
</svg>
