<svg xmlns="http://www.w3.org/2000/svg" fill="none" viewBox="11.28 19.65 142.92 27.97">
<path d="M30.3778 34.4689L17.464 26.0819L11.2847 24.8137L21.0967 38.106L30.3778 34.4689Z" fill="white"/>
<path d="M33.9019 38.1181L46.8881 46.4094L53.0794 47.6178L43.1588 34.4092L33.9019 38.1181Z" fill="white"/>
<path d="M16.4624 45.7035L44.3055 23.4738L64.159 19.6453L24.0779 44.0763L16.4624 45.7035Z" fill="white"/>
<path d="M64.239 41.853C63.945 41.622 63.9135 41.3595 64.1445 41.0655L67.4415 36.8865L64.4175 32.991C64.1865 32.711 64.2145 32.452 64.5015 32.214C64.7955 31.997 65.0545 32.0285 65.2785 32.3085L68.229 36.099L71.295 32.3085C71.526 32.0075 71.785 31.9795 72.072 32.2245C72.366 32.4555 72.3975 32.711 72.1665 32.991L68.9115 36.9915L72.1035 41.076C72.3345 41.377 72.3065 41.6325 72.0195 41.8425C71.7255 42.0805 71.463 42.0525 71.232 41.7585L68.145 37.7895L65.0055 41.748C64.7745 42.049 64.519 42.084 64.239 41.853ZM78.4165 41.979C77.1635 41.979 76.2325 41.7025 75.6235 41.1495C75.0215 40.5895 74.6995 39.711 74.6575 38.514C74.6505 38.346 74.696 38.213 74.794 38.115C74.899 38.01 75.0355 37.9575 75.2035 37.9575C75.3715 37.9575 75.5045 38.0065 75.6025 38.1045C75.7005 38.2025 75.7565 38.3355 75.7705 38.5035C75.7985 39.3855 76.0085 40.0015 76.4005 40.3515C76.7925 40.7015 77.4645 40.8765 78.4165 40.8765H81.4405C82.4345 40.8765 83.124 40.684 83.509 40.299C83.901 39.907 84.097 39.221 84.097 38.241C84.097 37.247 83.901 36.5575 83.509 36.1725C83.124 35.7805 82.4345 35.5845 81.4405 35.5845H78.5635C77.3315 35.5845 76.4285 35.2975 75.8545 34.7235C75.2805 34.1495 74.9935 33.25 74.9935 32.025C74.9935 30.8 75.277 29.9005 75.844 29.3265C76.418 28.7525 77.3175 28.4655 78.5425 28.4655H81.4825C82.6585 28.4655 83.53 28.728 84.097 29.253C84.671 29.778 84.979 30.604 85.021 31.731C85.035 31.899 84.9895 32.0355 84.8845 32.1405C84.7865 32.2385 84.65 32.2875 84.475 32.2875C84.314 32.2875 84.1845 32.2385 84.0865 32.1405C83.9885 32.0425 83.9325 31.9095 83.9185 31.7415C83.8905 30.9365 83.6945 30.373 83.3305 30.051C82.9665 29.729 82.3505 29.568 81.4825 29.568H78.5425C77.6255 29.568 76.9885 29.75 76.6315 30.114C76.2745 30.471 76.096 31.108 76.096 32.025C76.096 32.942 76.2745 33.5825 76.6315 33.9465C76.9955 34.3035 77.6395 34.482 78.5635 34.482H81.4405C82.7425 34.482 83.6945 34.7865 84.2965 35.3955C84.8985 35.9975 85.1995 36.946 85.1995 38.241C85.1995 39.536 84.8985 40.4845 84.2965 41.0865C83.6945 41.6815 82.7425 41.979 81.4405 41.979H78.4165ZM92.4783 42C91.1903 42 90.2488 41.7025 89.6538 41.1075C89.0588 40.5125 88.7613 39.5745 88.7613 38.2935V33.18H87.5118C87.1408 33.18 86.9553 32.9945 86.9553 32.6235C86.9553 32.2595 87.1408 32.0775 87.5118 32.0775H88.7613V29.82C88.7613 29.449 88.9433 29.2635 89.3073 29.2635C89.6783 29.2635 89.8638 29.449 89.8638 29.82V32.0775H92.4993C92.8633 32.0775 93.0453 32.2595 93.0453 32.6235C93.0453 32.9945 92.8633 33.18 92.4993 33.18H89.8638V38.2935C89.8638 39.2735 90.0528 39.9525 90.4308 40.3305C90.8158 40.7085 91.4983 40.8975 92.4783 40.8975C92.6813 40.8975 92.8248 40.943 92.9088 41.034C92.9998 41.125 93.0453 41.2615 93.0453 41.4435C93.0453 41.8145 92.8563 42 92.4783 42ZM96.0881 42C95.7171 42 95.5316 41.8145 95.5316 41.4435V32.6235C95.5316 32.2595 95.7171 32.0775 96.0881 32.0775C96.4521 32.0775 96.6341 32.2595 96.6341 32.6235V34.2405C96.9981 33.5405 97.5231 33.005 98.2091 32.634C98.9021 32.263 99.7211 32.0775 100.666 32.0775C101.037 32.0775 101.223 32.2595 101.223 32.6235C101.223 32.9945 101.037 33.18 100.666 33.18C99.4201 33.18 98.4541 33.4635 97.7681 34.0305C97.0821 34.5905 96.7041 35.392 96.6341 36.435V41.4435C96.6341 41.8145 96.4521 42 96.0881 42ZM105.342 42C104.25 42 103.449 41.748 102.938 41.244C102.434 40.733 102.182 39.9315 102.182 38.8395C102.182 37.7475 102.437 36.946 102.948 36.435C103.459 35.924 104.257 35.6685 105.342 35.6685H110.12C110.106 34.7445 109.896 34.1005 109.49 33.7365C109.091 33.3655 108.408 33.18 107.442 33.18H106.224C105.335 33.18 104.684 33.2745 104.271 33.4635C103.858 33.6525 103.603 33.9745 103.505 34.4295C103.456 34.6045 103.389 34.734 103.305 34.818C103.228 34.895 103.102 34.9335 102.927 34.9335C102.745 34.9335 102.602 34.8845 102.497 34.7865C102.399 34.6815 102.364 34.5415 102.392 34.3665C102.483 33.5685 102.843 32.9875 103.473 32.6235C104.11 32.2595 105.027 32.0775 106.224 32.0775H107.442C108.751 32.0775 109.707 32.382 110.309 32.991C110.918 33.593 111.222 34.5485 111.222 35.8575V41.4435C111.222 41.8145 111.04 42 110.676 42C110.305 42 110.12 41.8145 110.12 41.4435V40.404C109.448 41.468 108.247 42 106.518 42H105.342ZM105.342 40.8975H106.518C107.197 40.8975 107.792 40.824 108.303 40.677C108.821 40.523 109.238 40.278 109.553 39.942C109.868 39.606 110.057 39.158 110.12 38.598V36.771H105.342C104.565 36.771 104.026 36.9215 103.725 37.2225C103.431 37.5165 103.284 38.0555 103.284 38.8395C103.284 39.6165 103.431 40.1555 103.725 40.4565C104.026 40.7505 104.565 40.8975 105.342 40.8975ZM118.596 42C117.308 42 116.367 41.7025 115.772 41.1075C115.177 40.5125 114.879 39.5745 114.879 38.2935V33.18H113.63C113.259 33.18 113.073 32.9945 113.073 32.6235C113.073 32.2595 113.259 32.0775 113.63 32.0775H114.879V29.82C114.879 29.449 115.061 29.2635 115.425 29.2635C115.796 29.2635 115.982 29.449 115.982 29.82V32.0775H118.617C118.981 32.0775 119.163 32.2595 119.163 32.6235C119.163 32.9945 118.981 33.18 118.617 33.18H115.982V38.2935C115.982 39.2735 116.171 39.9525 116.549 40.3305C116.934 40.7085 117.616 40.8975 118.596 40.8975C118.799 40.8975 118.943 40.943 119.027 41.034C119.118 41.125 119.163 41.2615 119.163 41.4435C119.163 41.8145 118.974 42 118.596 42ZM121.628 37.464V38.2305C121.628 39.2175 121.824 39.9105 122.216 40.3095C122.615 40.7015 123.315 40.8975 124.316 40.8975H126.038C126.92 40.8975 127.56 40.7855 127.959 40.5615C128.365 40.3305 128.607 39.935 128.684 39.375C128.712 39.2 128.768 39.067 128.852 38.976C128.943 38.885 129.079 38.8395 129.261 38.8395C129.443 38.8395 129.58 38.892 129.671 38.997C129.769 39.095 129.807 39.235 129.786 39.417C129.695 40.299 129.342 40.95 128.726 41.37C128.11 41.79 127.214 42 126.038 42H124.316C123.007 42 122.048 41.699 121.439 41.097C120.83 40.488 120.525 39.5325 120.525 38.2305V35.8575C120.525 34.5345 120.83 33.572 121.439 32.97C122.048 32.361 123.007 32.0635 124.316 32.0775H126.038C127.347 32.0775 128.302 32.382 128.904 32.991C129.513 33.593 129.818 34.5485 129.818 35.8575V36.9075C129.818 37.2785 129.636 37.464 129.272 37.464H121.628ZM124.316 33.18C123.315 33.166 122.615 33.3585 122.216 33.7575C121.824 34.1495 121.628 34.8495 121.628 35.8575V36.3615H128.715V35.8575C128.715 34.8565 128.519 34.16 128.127 33.768C127.735 33.376 127.039 33.18 126.038 33.18H124.316ZM135.457 46.2C134.631 46.2 134.001 46.0285 133.567 45.6855C133.133 45.3495 132.878 44.8175 132.801 44.0895C132.78 43.9075 132.818 43.764 132.916 43.659C133.014 43.554 133.151 43.5015 133.326 43.5015C133.501 43.5015 133.634 43.547 133.725 43.638C133.816 43.729 133.875 43.8655 133.903 44.0475C133.952 44.4535 134.096 44.73 134.334 44.877C134.572 45.024 134.946 45.0975 135.457 45.0975H139.363C139.979 45.0975 140.396 44.9855 140.613 44.7615C140.837 44.5375 140.949 44.1175 140.949 43.5015V40.4985C140.627 40.9885 140.172 41.363 139.584 41.622C138.996 41.874 138.25 42 137.347 42H136.549C135.24 42 134.281 41.699 133.672 41.097C133.063 40.488 132.759 39.5325 132.759 38.2305V35.8575C132.759 34.5345 133.06 33.5755 133.662 32.9805C134.271 32.3785 135.233 32.0775 136.549 32.0775H138.271C138.957 32.0775 139.514 32.1685 139.941 32.3505C140.368 32.5325 140.704 32.816 140.949 33.201V32.6235C140.949 32.2595 141.134 32.0775 141.505 32.0775C141.869 32.0775 142.051 32.2595 142.051 32.6235V43.5015C142.051 44.4255 141.834 45.1045 141.4 45.5385C140.966 45.9795 140.287 46.2 139.363 46.2H135.457ZM136.549 40.8975H137.347C138.439 40.8975 139.311 40.726 139.962 40.383C140.62 40.04 140.949 39.5185 140.949 38.8185V35.3115C140.949 34.5205 140.728 33.9675 140.287 33.6525C139.846 33.3375 139.174 33.18 138.271 33.18H136.549C135.548 33.18 134.848 33.376 134.449 33.768C134.057 34.153 133.861 34.8495 133.861 35.8575V38.2305C133.861 39.2175 134.057 39.9105 134.449 40.3095C134.848 40.7015 135.548 40.8975 136.549 40.8975ZM147.877 46.2C146.96 46.2 146.281 45.9795 145.84 45.5385C145.406 45.0975 145.189 44.4115 145.189 43.4805C145.189 43.1165 145.371 42.9345 145.735 42.9345C146.106 42.9345 146.291 43.1165 146.291 43.4805C146.291 44.1105 146.403 44.5375 146.627 44.7615C146.851 44.9855 147.268 45.0975 147.877 45.0975H151.51C152.126 45.0975 152.546 44.9855 152.77 44.7615C152.994 44.5375 153.106 44.1105 153.106 43.4805V40.593C152.707 41.118 152.206 41.4855 151.604 41.6955C151.002 41.9055 150.299 42.0105 149.494 42.0105H148.906C147.618 42.0105 146.676 41.713 146.081 41.118C145.486 40.523 145.189 39.5885 145.189 38.3145V32.613C145.189 32.242 145.371 32.0565 145.735 32.0565C146.106 32.0565 146.291 32.242 146.291 32.613V38.3145C146.291 39.2875 146.48 39.963 146.858 40.341C147.243 40.719 147.926 40.908 148.906 40.908H149.494C150.719 40.908 151.625 40.6945 152.213 40.2675C152.808 39.8335 153.106 39.1825 153.106 38.3145V32.613C153.106 32.242 153.288 32.0565 153.652 32.0565C154.023 32.0565 154.208 32.242 154.208 32.613V43.4805C154.208 44.4115 153.988 45.0975 153.547 45.5385C153.113 45.9795 152.434 46.2 151.51 46.2H147.877Z" fill="white"/>
</svg>